<?xml version="1.0" standalone="no"?>
<!DOCTYPE svg PUBLIC "-//W3C//DTD SVG 20010904//EN"
 "http://www.w3.org/TR/2001/REC-SVG-20010904/DTD/svg10.dtd">
<svg version="1.0" xmlns="http://www.w3.org/2000/svg"
 width="290.000000pt" height="290.000000pt" viewBox="0 0 290.000000 290.000000"
 preserveAspectRatio="xMidYMid meet">
<metadata>
Created by potrace 1.14, written by Peter Selinger 2001-2017
</metadata>
<g transform="translate(0.000000,290.000000) scale(0.100000,-0.100000)"
fill="#000000" stroke="none">
<path d="M400 2150 l0 -350 350 0 350 0 0 350 0 350 -350 0 -350 0 0 -350z
m600 0 l0 -250 -250 0 -250 0 0 250 0 250 250 0 250 0 0 -250z"/>
<path d="M600 2150 l0 -150 150 0 150 0 0 150 0 150 -150 0 -150 0 0 -150z"/>
<path d="M1200 2450 l0 -50 50 0 50 0 0 -50 0 -50 -50 0 -50 0 0 -50 0 -50
100 0 100 0 0 150 0 150 -100 0 -100 0 0 -50z"/>
<path d="M1600 2400 l0 -100 -50 0 -50 0 0 -50 0 -50 50 0 50 0 0 -100 0 -100
50 0 50 0 0 250 0 250 -50 0 -50 0 0 -100z"/>
<path d="M1800 2150 l0 -350 350 0 350 0 0 350 0 350 -350 0 -350 0 0 -350z
m600 0 l0 -250 -250 0 -250 0 0 250 0 250 250 0 250 0 0 -250z"/>
<path d="M2000 2150 l0 -150 150 0 150 0 0 150 0 150 -150 0 -150 0 0 -150z"/>
<path d="M1400 2050 l0 -50 -100 0 -100 0 0 -100 0 -100 50 0 50 0 0 50 0 50
50 0 50 0 0 -100 0 -100 50 0 50 0 0 -50 0 -50 -150 0 -150 0 0 50 0 50 -100
0 -100 0 0 -50 0 -50 -100 0 -100 0 0 -50 0 -50 -50 0 -50 0 0 100 0 100 -50
0 -50 0 0 -100 0 -100 -50 0 -50 0 0 100 0 100 -50 0 -50 0 0 -100 0 -100 50
0 50 0 0 -50 0 -50 100 0 100 0 0 -50 0 -50 -150 0 -150 0 0 -50 0 -50 150 0
150 0 0 50 0 50 50 0 50 0 0 -50 0 -50 200 0 200 0 0 -100 0 -100 150 0 150 0
0 -50 0 -50 -50 0 -50 0 0 -50 0 -50 -50 0 -50 0 0 -50 0 -50 -50 0 -50 0 0
-50 0 -50 50 0 50 0 0 -50 0 -50 -50 0 -50 0 0 -50 0 -50 100 0 100 0 0 50 0
50 50 0 50 0 0 100 0 100 -50 0 -50 0 0 50 0 50 200 0 200 0 0 -50 0 -50 -50
0 -50 0 0 -50 0 -50 -50 0 -50 0 0 -50 0 -50 50 0 50 0 0 -50 0 -50 100 0 100
0 0 50 0 50 50 0 50 0 0 -50 0 -50 100 0 100 0 0 100 0 100 150 0 150 0 0 50
0 50 -250 0 -250 0 0 -50 0 -50 -50 0 -50 0 0 150 0 150 150 0 150 0 0 50 0
50 50 0 50 0 0 50 0 50 -50 0 -50 0 0 -50 0 -50 -50 0 -50 0 0 50 0 50 -50 0
-50 0 0 50 0 50 50 0 50 0 0 50 0 50 50 0 50 0 0 -50 0 -50 50 0 50 0 0 50 0
50 -50 0 -50 0 0 150 0 150 50 0 50 0 0 50 0 50 -50 0 -50 0 0 -50 0 -50 -50
0 -50 0 0 -50 0 -50 -50 0 -50 0 0 -50 0 -50 50 0 50 0 0 -50 0 -50 -50 0 -50
0 0 -50 0 -50 -50 0 -50 0 0 50 0 50 -50 0 -50 0 0 50 0 50 -100 0 -100 0 0
-50 0 -50 50 0 50 0 0 -100 0 -100 -50 0 -50 0 0 50 0 50 -50 0 -50 0 0 50 0
50 -50 0 -50 0 0 -100 0 -100 -50 0 -50 0 0 100 0 100 -50 0 -50 0 0 50 0 50
50 0 50 0 0 50 0 50 100 0 100 0 0 50 0 50 100 0 100 0 0 50 0 50 -50 0 -50 0
0 50 0 50 50 0 50 0 0 50 0 50 -50 0 -50 0 0 -50 0 -50 -50 0 -50 0 0 150 0
150 -50 0 -50 0 0 -50z m-200 -550 l0 -100 -50 0 -50 0 0 -50 0 -50 -150 0
-150 0 0 100 0 100 100 0 100 0 0 50 0 50 100 0 100 0 0 -100z m700 -350 l0
-50 50 0 50 0 0 -50 0 -50 -50 0 -50 0 0 -50 0 -50 -50 0 -50 0 0 50 0 50 -50
0 -50 0 0 -50 0 -50 -50 0 -50 0 0 50 0 50 50 0 50 0 0 50 0 50 50 0 50 0 0
50 0 50 50 0 50 0 0 -50z m-500 -500 l0 -50 -50 0 -50 0 0 50 0 50 50 0 50 0
0 -50z m500 -100 l0 -50 -100 0 -100 0 0 50 0 50 100 0 100 0 0 -50z"/>
<path d="M1000 1450 l0 -50 50 0 50 0 0 50 0 50 -50 0 -50 0 0 -50z"/>
<path d="M1900 1650 l0 -50 -50 0 -50 0 0 -50 0 -50 50 0 50 0 0 50 0 50 50 0
50 0 0 50 0 50 -50 0 -50 0 0 -50z"/>
<path d="M2400 1650 l0 -50 50 0 50 0 0 50 0 50 -50 0 -50 0 0 -50z"/>
<path d="M2400 1450 l0 -50 50 0 50 0 0 50 0 50 -50 0 -50 0 0 -50z"/>
<path d="M2400 1100 l0 -200 -50 0 -50 0 0 -50 0 -50 50 0 50 0 0 50 0 50 50
0 50 0 0 200 0 200 -50 0 -50 0 0 -200z"/>
<path d="M400 750 l0 -350 350 0 350 0 0 350 0 350 -350 0 -350 0 0 -350z
m600 0 l0 -250 -250 0 -250 0 0 250 0 250 250 0 250 0 0 -250z"/>
<path d="M600 750 l0 -150 150 0 150 0 0 150 0 150 -150 0 -150 0 0 -150z"/>
<path d="M2400 450 l0 -50 50 0 50 0 0 50 0 50 -50 0 -50 0 0 -50z"/>
</g>
</svg>
